<svg xmlns="http://www.w3.org/2000/svg" fill="none" viewBox="0 0 96 96" id="Ant-Design--Streamline-Svg-Logos" height="24" width="24">
  <desc>
    Ant Design Streamline Icon: https://streamlinehq.com
  </desc>
  <path fill="url(#a)" d="M43.99 2.70162 2.66623 43.9914c-2.221639 2.2198-2.221639 5.8052 0 8.025L43.99 93.3062c2.2217 2.2198 5.81 2.2198 8.0316 0L69.3481 75.994c1.9896-1.988 1.9896-5.2112 0-7.1992-1.9897-1.988-5.2155-1.988-7.2051 0L49.0079 81.9191c-.553.5525-1.3922.5525-1.9452 0L14.0628 48.9462c-.553-.5525-.553-1.3911 0-1.9436l32.9999-32.9728c.553-.5525 1.3922-.5525 1.9452 0L62.143 27.154c1.9896 1.988 5.2154 1.988 7.2051 0 1.9896-1.988 1.9896-5.2111 0-7.1991L52.0235 2.64451C49.7928.472743 46.2031.490324 43.99 2.70162Z"></path>
  <path fill="url(#b)" d="M43.99 2.70162 2.66623 43.9914c-2.221639 2.2198-2.221639 5.8052 0 8.025L43.99 93.3062c2.2217 2.2198 5.81 2.2198 8.0316 0L69.3481 75.994c1.9896-1.988 1.9896-5.2112 0-7.1992-1.9897-1.988-5.2155-1.988-7.2051 0L49.0079 81.9191c-.553.5525-1.3922.5525-1.9452 0L14.0628 48.9462c-.553-.5525-.553-1.3911 0-1.9436l32.9999-32.9728c1.3769-1.187 3.6234-3.5912 6.9224-4.15349 2.4517-.41789 5.1321.50189 8.0412 2.75929-1.9449-1.9433-5.2791-5.27367-10.0028-9.99109C49.7928.472743 46.2031.490324 43.99 2.70162Z"></path>
  <path fill="url(#c)" d="M73.3481 64.9544c1.9896 1.988 5.2155 1.988 7.2051 0L93.3341 52.184c2.2216-2.2198 2.2216-5.8052.0002-8.0247L80.442 31.3233c-1.9943-1.9856-5.2212-1.9828-7.212.0064-1.9896 1.988-1.9896 5.2112 0 7.1992l8.7075 8.7003c.553.5525.553 1.3911 0 1.9436l-8.5894 8.5824c-1.9897 1.988-1.9897 5.2112 0 7.1992Z"></path>
  <path fill="url(#d)" d="M48.2121 59.3585c6.1621 0 11.1574-4.9912 11.1574-11.1482 0-6.1571-4.9953-11.1483-11.1574-11.1483-6.1621 0-11.1574 4.9912-11.1574 11.1483 0 6.157 4.9953 11.1482 11.1574 11.1482Z"></path>
  <defs>
    <linearGradient id="a" x1="4338.25" x2="8265.21" y1="1.03" y2="2399.16" gradientUnits="userSpaceOnUse">
      <stop stop-color="#4285eb"></stop>
      <stop offset="1" stop-color="#2ec7ff"></stop>
    </linearGradient>
    <linearGradient id="b" x1="4864.97" x2="2925.41" y1="1.029" y2="10025.2" gradientUnits="userSpaceOnUse">
      <stop stop-color="#29cdff"></stop>
      <stop offset=".379" stop-color="#148eff"></stop>
      <stop offset="1" stop-color="#0a60ff"></stop>
    </linearGradient>
    <linearGradient id="c" x1="1692.92" x2="-830.74" y1="-445.148" y2="3501.65" gradientUnits="userSpaceOnUse">
      <stop stop-color="#fa816e"></stop>
      <stop offset=".415" stop-color="#f74a5c"></stop>
      <stop offset="1" stop-color="#f51d2c"></stop>
    </linearGradient>
    <linearGradient id="d" x1="1557.32" x2="717.622" y1="-758.713" y2="2600.21" gradientUnits="userSpaceOnUse">
      <stop stop-color="#fa8e7d"></stop>
      <stop offset=".513" stop-color="#f74a5c"></stop>
      <stop offset="1" stop-color="#f51d2c"></stop>
    </linearGradient>
  </defs>
</svg>