<svg xmlns="http://www.w3.org/2000/svg" fill="none" viewBox="0 0 24 24" id="Axios--Streamline-Svg-Logos" height="24" width="24">
  <desc>
    Axios Streamline Icon: https://streamlinehq.com
  </desc>
  <path fill="#5a29e4" d="M11.913425 10.7088v2.7615l-0.300975 0.2424V11.4155h-0.566525l0.8675 -0.7067Zm10.4384 -0.42145c0.252025 0 0.48605 0.038 0.702075 0.114025 0.207825 0.071775 0.387075 0.1525 0.537775 0.242125l0.0263 0.0159 -0.312025 0.594075c-0.028475 -0.0233 -0.068675 -0.04995 -0.1206 -0.079925l-0.0295 -0.0167 -0.0318 -0.017375 -0.03415 -0.018c-0.096 -0.052025 -0.210025 -0.096025 -0.342025 -0.132025 -0.132025 -0.04 -0.26805 -0.06 -0.408075 -0.06 -0.37605 0 -0.564075 0.106 -0.564075 0.318025 0 0.124025 0.068025 0.212025 0.20405 0.26405l0.030975 0.011225 0.03295 0.011425 0.0349 0.0116 0.03685 0.0118 0.038825 0.011975 0.040775 0.01215c0.006975 0.002025 0.014 0.004075 0.021125 0.00615l0.043725 0.012425 0.045675 0.0126 0.04765 0.0128 0.0496 0.013 0.05155 0.01315 0.081025 0.0201 0.05645 0.013625c0.236025 0.06 0.44005 0.128025 0.612075 0.204025 0.1687 0.07285 0.2988 0.169575 0.390325 0.290175l0.011725 0.015875c0.096025 0.124 0.144025 0.288025 0.144025 0.49205 0 0.248025 -0.064 0.448075 -0.192025 0.600075 -0.124025 0.148025 -0.28805 0.25605 -0.492075 0.32405 -0.204025 0.064 -0.42405 0.096025 -0.660075 0.096025 -0.27205 0 -0.542075 -0.038025 -0.8101 -0.114025 -0.255275 -0.0724 -0.48335 -0.170175 -0.684175 -0.293375l-0.029925 -0.018675 0.324025 -0.630075c0.052025 0.052 0.138025 0.110025 0.25805 0.174025 0.124 0.064 0.268025 0.118025 0.43205 0.162025 0.164025 0.044 0.33805 0.066 0.522075 0.066 0.36805 0 0.552075 -0.098 0.552075 -0.294025 0 -0.132025 -0.086025 -0.22605 -0.25805 -0.28205l-0.04135 -0.014525 -0.043425 -0.01475 -0.045525 -0.014975 -0.047575 -0.0152 -0.049675 -0.01545 -0.051725 -0.01565c-0.0088 -0.00265 -0.017675 -0.005275 -0.02665 -0.007925l-0.054825 -0.016025 -0.056925 -0.01625 -0.058975 -0.016475 -0.061075 -0.0167 -0.095475 -0.0255 -0.032875 -0.0086c-0.34405 -0.088 -0.600075 -0.200025 -0.7681 -0.33605 -0.164025 -0.140025 -0.246025 -0.34005 -0.246025 -0.600075 0 -0.232025 0.058 -0.426075 0.174 -0.582075 0.120025 -0.156025 0.28005 -0.27405 0.480075 -0.35405 0.204025 -0.080025 0.42605 -0.120025 0.6661 -0.120025Zm-5.565 0.006c0.253875 0 0.485675 0.04625 0.695175 0.1387l0.02505 0.011325c0.216025 0.096 0.40005 0.226025 0.552075 0.39005 0.156025 0.160025 0.2759 0.34205 0.359925 0.546075 0.084 0.204025 0.126125 0.41205 0.126125 0.624075 0 0.220025 -0.044 0.432075 -0.132 0.6361 -0.088025 0.200025 -0.212175 0.38005 -0.372175 0.540075 -0.156025 0.156025 -0.341925 0.280025 -0.55795 0.37205 -0.21605 0.092 -0.452075 0.138 -0.7081 0.138 -0.26405 0 -0.504075 -0.046 -0.7201 -0.138 -0.216025 -0.096025 -0.402175 -0.224025 -0.5582 -0.38405 -0.156025 -0.164025 -0.276025 -0.34805 -0.36005 -0.552075 -0.083875 -0.204025 -0.126 -0.41405 -0.126 -0.6301 0 -0.220025 0.044 -0.43205 0.132 -0.636075 0.084025 -0.19475 0.20095 -0.36765 0.350575 -0.51865l0.0216 -0.021425c0.160025 -0.160025 0.347925 -0.28605 0.56395 -0.37805 0.216025 -0.092025 0.452075 -0.138025 0.7081 -0.138025Zm-14.4785525 0.018 1.4582025 3.35445h-0.7681l-0.33605 -0.7861H1.3601475l-0.336045 0.7861H0.25l1.464195 -3.35445h0.5940775Zm4.2952025 0 0.924125 1.188175 0.924125 -1.188175h0.7861l-1.326175 1.69825 1.284175 1.6562h-0.7861l-0.882125 -1.14015 -0.8761 1.14015h-0.798125l1.290175 -1.6562 -1.332175 -1.69825h0.7921Zm5.860325 -0.01535v2.24465h0.5824l-0.88275 0.72445v-2.76l0.30035 -0.2091Zm4.31115 0.64545c-0.220025 0 -0.408175 0.052 -0.5642 0.156 -0.152025 0.104025 -0.26805 0.23605 -0.34805 0.396075 -0.08 0.160025 -0.120025 0.32605 -0.120025 0.49805 0 0.180025 0.04215 0.35205 0.12615 0.516075 0.0839 0.160025 0.2019 0.29005 0.353925 0.39005 0.156025 0.100025 0.34205 0.150025 0.558075 0.150025 0.220025 0 0.40605 -0.052 0.558075 -0.156025 0.15215 -0.108 0.268025 -0.242025 0.34805 -0.40205 0.08 -0.164025 0.120125 -0.33205 0.120125 -0.504075 0 -0.180025 -0.042 -0.35005 -0.126 -0.510075 -0.084025 -0.16 -0.204025 -0.288025 -0.360175 -0.38405 -0.152025 -0.1 -0.333925 -0.15 -0.54595 -0.15ZM2.014235 11.193475l-0.492065 1.05615h0.9661275l-0.4740625 -1.05615Z" stroke-width="0.25"></path>
</svg>