<svg xmlns="http://www.w3.org/2000/svg" fill="none" viewBox="0 0 24 24" id="Bootstrap--Streamline-Svg-Logos" height="24" width="24">
  <desc>
    Bootstrap Streamline Icon: https://streamlinehq.com
  </desc>
  <path fill="#7e13f8" d="M5.131025 2.639775c-1.3409 0 -2.333075 1.1736 -2.28865 2.446375 0.0426 1.2228 -0.01275 2.806475 -0.411455 4.097975C2.0310225 10.4794 1.3547 11.299925 0.25 11.405275v1.189325c1.1047 0.10535 1.7810225 0.925875 2.18092 2.22115 0.398705 1.291525 0.454055 2.875175 0.411455 4.097975 -0.044425 1.272575 0.94775 2.446375 2.28885 2.446375h13.73955c1.340875 0 2.33285 -1.1736 2.28845 -2.446375 -0.042625 -1.2228 0.01275 -2.80645 0.41145 -4.097975 0.4001 -1.295275 1.074625 -2.1158 2.179325 -2.22115v-1.189325c-1.1047 -0.10535 -1.779225 -0.925875 -2.179325 -2.22115 -0.3987 -1.2913 -0.454075 -2.875175 -0.41145 -4.097975 0.0444 -1.272575 -0.947575 -2.446375 -2.28845 -2.446375H5.130825h0.0002Zm11.051175 11.52355c0 1.75255 -1.307225 2.815425 -3.4766 2.815425H9.0127c-0.219975 0 -0.3983 -0.178325 -0.3983 -0.3983V7.419425c0 -0.219975 0.178325 -0.3983 0.3983 -0.3983h3.671775c1.808925 0 2.996075 0.979825 2.996075 2.484225 0 1.055925 -0.798625 2.0013 -1.816075 2.166775v0.055175c1.3851 0.15195 2.317725 1.111075 2.317725 2.436025ZM12.3029 8.28375h-2.105625v2.97415h1.77345c1.370975 0 2.12695 -0.55205 2.12695 -1.53885 0 -0.924675 -0.650025 -1.4353 -1.794775 -1.4353Zm-2.105625 4.154325v3.27765h2.1831c1.427325 0 2.183525 -0.57275 2.183525 -1.649175 0 -1.076625 -0.7773 -1.628675 -2.275325 -1.628675h-2.0913v0.0002Z" stroke-width="0.25"></path>
</svg>