<svg xmlns="http://www.w3.org/2000/svg" fill="none" viewBox="0 0 24 24" id="Create-React-App--Streamline-Svg-Logos" height="24" width="24">
  <desc>
    Create React App Streamline Icon: https://streamlinehq.com
  </desc>
  <path fill="#09d3ac" d="M21.712575 10.870025c0 -1.197775 -1.409875 -2.25995 -3.577675 -2.908375 0.521525 -2.202575 0.293775 -3.954925 -0.74405 -4.547725 -0.254475 -0.141325 -0.54165 -0.213275 -0.8327 -0.2086 -0.9683 0 -2.19215 0.67625 -3.428175 1.8462 -1.236025 -1.161275 -2.4564 -1.834025 -3.42295 -1.834025 -0.295575 -0.00655 -0.587425 0.066725 -0.844875 0.212075 -1.032625 0.59455 -1.24645 2.33645 -0.731875 4.5286 -2.157375 0.64495 -3.5603 1.698425 -3.563775 2.891 -0.003475 1.19255 1.4116 2.25995 3.579425 2.90665 -0.521525 2.2043 -0.29555 3.9549 0.744025 4.5477 0.25355 0.142125 0.540375 0.214125 0.830975 0.208625 0.97005 0 2.1939 -0.67625 3.4299 -1.846225 1.2343 1.161275 2.454675 1.83405 3.422975 1.83405 0.295425 0.005425 0.587 -0.067775 0.844875 -0.2121 1.032625 -0.594525 1.2447 -2.336425 0.731875 -4.5199 2.157375 -0.65365 3.560275 -1.707125 3.562025 -2.89795ZM13.926175 5.444425c1.423775 -1.274275 2.31385 -1.4116 2.630225 -1.4116 0.14675 -0.004725 0.29205 0.0301 0.4207 0.100825 0.4972 0.28335 0.695375 1.28295 0.537175 2.607625 -0.040525 0.3383 -0.09855 0.67425 -0.17385 1.00655 -0.72035 -0.16745 -1.4509 -0.28765 -2.186925 -0.35985 -0.4383 -0.615075 -0.91685 -1.200475 -1.43245 -1.752325 0.0643 -0.064325 0.13385 -0.12865 0.205125 -0.191225ZM9.616625 11.855725c0.1356 0.26075 0.279875 0.521525 0.4294 0.784025 0.1495 0.2625 0.30595 0.528475 0.4798 0.790975 -0.471125 -0.0678 -0.928325 -0.152975 -1.362925 -0.2538 0.121675 -0.441575 0.2764 -0.876175 0.453725 -1.3212ZM9.135075 8.54575c0.439825 -0.10255 0.9005 -0.18775 1.378575 -0.2538 -0.17385 0.257275 -0.32335 0.521525 -0.4798 0.797925 -0.156475 0.276425 -0.2938 0.52155 -0.42765 0.785775 -0.177325 -0.451975 -0.334375 -0.895275 -0.471125 -1.3299Zm0.905725 2.319075c0.21555 -0.455475 0.452575 -0.91095 0.711025 -1.3664 0.26075 -0.455475 0.540625 -0.898775 0.829225 -1.32295 0.505875 -0.03825 1.0274 -0.0591 1.564575 -0.057375 0.537175 0.00175 1.04305 0.020875 1.54545 0.06085 0.288575 0.4207 0.565 0.869225 0.82575 1.3125 0.260775 0.4433 0.500675 0.907475 0.716225 1.3612 -0.213825 0.455475 -0.451975 0.912675 -0.709275 1.36465 -0.257275 0.452 -0.54065 0.9005 -0.829225 1.324675 -0.505875 0.04 -1.0274 0.059125 -1.564575 0.059125s-1.04305 -0.0226 -1.54545 -0.0626c-0.288575 -0.4207 -0.566725 -0.858775 -0.8275 -1.3125 -0.26075 -0.453725 -0.491975 -0.90745 -0.709275 -1.361175h-0.00695ZM15.75325 8.297175c0.47285 0.06605 0.93005 0.151225 1.362925 0.25205 -0.12865 0.4294 -0.281625 0.869225 -0.45895 1.312525 -0.137325 -0.260775 -0.279875 -0.521525 -0.431125 -0.784025 -0.151225 -0.2625 -0.311175 -0.52675 -0.4659 -0.78055h-0.00695Zm0.4798 4.33215c0.149525 -0.2631 0.292075 -0.5256 0.42765 -0.787525 0.17385 0.452 0.3477 0.897025 0.469375 1.33165 -0.438075 0.10255 -0.89875 0.186 -1.376825 0.25205 0.16805 -0.257275 0.3303 -0.522675 0.486775 -0.796175h-0.006975ZM13.13345 6.2267c0.312925 0.333775 0.620625 0.695375 0.921375 1.08305 -0.297275 -0.012175 -0.6015 -0.020875 -0.9092 -0.020875s-0.62235 0 -0.926575 0.020875c0.29725 -0.38595 0.601475 -0.749275 0.9144 -1.08305Zm-3.855825 -2.0861c0.1319 -0.07015 0.28015 -0.10375 0.4294 -0.09735 0.3132 0.01305 0.62035 0.090575 0.902225 0.227725 0.6371 0.300375 1.223575 0.698 1.738425 1.17865l0.2034 0.186025c-0.51035 0.547825 -0.984225 1.12855 -1.41855 1.7384 -0.74 0.0717 -1.474575 0.191325 -2.1991 0.358125 -0.0765 -0.33725 -0.139075 -0.66755 -0.17385 -0.985675 -0.1808 -1.312525 0.027825 -2.31385 0.516325 -2.59895l0.001725 -0.00695ZM8.358 12.9544c-0.326625 -0.099725 -0.648075 -0.21575 -0.963075 -0.347675 -1.234275 -0.521525 -1.9992 -1.190825 -1.9992 -1.762775 0 -0.571925 0.7684 -1.23775 2.000925 -1.7506 0.3094 -0.12815 0.625025 -0.2407 0.9457 -0.33725 0.217325 0.720225 0.48215 1.42525 0.792725 2.11045 -0.303975 0.6784 -0.563525 1.3758 -0.777075 2.08785Zm3.998375 3.3204c-1.423775 1.27425 -2.31385 1.40985 -2.631975 1.40985 -0.14675 0.004875 -0.2921 -0.02995 -0.4207 -0.100825 -0.497175 -0.283375 -0.695375 -1.28295 -0.537175 -2.60765 0.040375 -0.337725 0.0984 -0.673125 0.17385 -1.0048 0.720575 0.166 1.45105 0.2856 2.186925 0.358125 0.437775 0.615475 0.91635 1.2009 1.432475 1.752325l-0.2034 0.192975Zm0.79445 -0.78405c-0.3129 -0.333775 -0.6206 -0.69535 -0.9231 -1.083025 0.299025 0.0139 0.60325 0.02085 0.91095 0.02085 0.3077 0 0.62235 0 0.926575 -0.019125 -0.30075 0.38595 -0.606725 0.747525 -0.91615 1.0813h0.001725Zm3.855825 2.086125c-0.1319 0.07225 -0.2808 0.107675 -0.431125 0.10255 -0.3164 0 -1.2169 -0.139075 -2.63545 -1.408125l-0.2034 -0.186c0.509775 -0.547875 0.983075 -1.1286 1.416825 -1.738425 0.7407 -0.070675 1.475925 -0.190325 2.20085 -0.358125 0.076475 0.337275 0.137325 0.667575 0.173825 0.9857 0.172125 1.310775 -0.0278 2.3121 -0.52325 2.59545l0.001725 0.006975Zm1.8775 -4.944075c-0.297275 0.121675 -0.611925 0.234675 -0.9457 0.3355 -0.218175 -0.72015 -0.483575 -1.425175 -0.79445 -2.11045 0.30535 -0.6776 0.5661 -1.37445 0.78055 -2.0861 0.326625 0.099725 0.648075 0.215775 0.963075 0.3477 1.23255 0.521525 1.9992 1.1908 1.99745 1.76275 -0.001725 0.57195 -0.768375 1.2308 -2.00265 1.74365l0.001725 0.00695Zm-5.7507 -0.177325c0.881375 0.00095 1.59665 -0.71275 1.5976 -1.594125 0.000975 -0.881375 -0.71275 -1.59665 -1.594125 -1.597625 -0.881375 -0.00095 -1.59665 0.71275 -1.5976 1.594125 -0.000925 0.4234 0.166625 0.829775 0.465675 1.129475 0.29905 0.299725 0.70505 0.46815 1.12845 0.46815ZM2.529075 1.240905V20.47655H23.75V1.240905H2.529075ZM22.920775 19.649075H3.36005V2.0701325h19.560725V19.649075Zm-14.7766 -5.89325c-0.521525 2.2043 -0.295525 3.9549 0.74405 4.5477 0.253525 0.142125 0.54035 0.214125 0.830975 0.208625 0.970025 0 2.193875 -0.67625 3.4299 -1.846225 1.234275 1.161275 2.45465 1.83405 3.42295 1.83405 0.29545 0.005425 0.587025 -0.067775 0.844875 -0.2121 1.032625 -0.594525 1.2447 -2.336425 0.731875 -4.5199 2.157375 -0.646675 3.5603 -1.700175 3.562025 -2.891 0.00175 -1.1908 -1.40985 -2.25995 -3.577675 -2.908375 0.521525 -2.202575 0.2938 -3.9549 -0.74405 -4.5477 -0.254475 -0.14135 -0.541625 -0.2133 -0.8327 -0.208625 -0.9683 0 -2.19215 0.67625 -3.428175 1.8462 -1.236 -1.16125 -2.456375 -1.834025 -3.42295 -1.834025 -0.29555 -0.006525 -0.587425 0.066725 -0.844875 0.212075 -1.032625 0.59455 -1.24645 2.33645 -0.731875 4.5286 -2.157375 0.64495 -3.560275 1.69845 -3.563775 2.891 -0.00345 1.19255 1.41335 2.249525 3.581175 2.8997h-0.00175Zm4.208725 2.518975c-1.423775 1.27425 -2.31385 1.40985 -2.631975 1.40985 -0.14675 0.004875 -0.2921 -0.02995 -0.4207 -0.100825 -0.497175 -0.283375 -0.695375 -1.28295 -0.537175 -2.60765 0.040375 -0.337725 0.0984 -0.673125 0.17385 -1.0048 0.720575 0.166 1.45105 0.2856 2.186925 0.358125 0.437775 0.615475 0.91635 1.2009 1.432475 1.752325l-0.2034 0.192975ZM16.66245 9.86175c-0.137325 -0.260775 -0.279875 -0.521525 -0.431125 -0.784025 -0.15125 -0.2625 -0.312925 -0.521525 -0.47285 -0.78055 0.47285 0.06605 0.93005 0.151225 1.362925 0.25205 -0.1269 0.4294 -0.2799 0.869225 -0.4572 1.312525h-0.00175Zm0.47285 3.303c-0.438075 0.102575 -0.898775 0.186 -1.376825 0.252075 0.1634 -0.2573 0.32335 -0.5227 0.4798 -0.7962 0.15645 -0.273525 0.299 -0.536025 0.42765 -0.7875 0.182525 0.460675 0.340725 0.902225 0.4659 1.340325l0.003475 -0.0087Zm-0.905725 -2.3208c-0.213825 0.455475 -0.451975 0.912675 -0.709275 1.364675 -0.257275 0.451975 -0.54065 0.9005 -0.829225 1.324675 -0.505875 0.039975 -1.0274 0.0591 -1.564575 0.0591s-1.04305 -0.0226 -1.54545 -0.062575c-0.2886 -0.4207 -0.566725 -0.8588 -0.8275 -1.312525 -0.26075 -0.453725 -0.498925 -0.90745 -0.716225 -1.361175 0.21555 -0.455475 0.452575 -0.910925 0.711 -1.3664 0.260775 -0.455475 0.54065 -0.898775 0.82925 -1.32295 0.505875 -0.03825 1.0274 -0.0591 1.564575 -0.05735 0.537175 0.001725 1.04305 0.02085 1.54545 0.060825 0.288575 0.4207 0.565 0.869225 0.82575 1.312525 0.260775 0.4433 0.5024 0.91615 0.717975 1.369875l-0.00175 -0.0087Zm-5.70375 2.586775c-0.471125 -0.0678 -0.928325 -0.152975 -1.362925 -0.2538 0.128625 -0.42765 0.28335 -0.869225 0.460675 -1.312525 0.1356 0.260775 0.279875 0.521525 0.4294 0.78405 0.1495 0.2625 0.299 0.519775 0.47285 0.782275Zm-0.485025 -4.34605c-0.15125 0.26075 -0.2938 0.521525 -0.42765 0.78575 -0.18195 -0.4485 -0.341325 -0.89005 -0.478075 -1.324675 0.439825 -0.10255 0.9005 -0.18775 1.378575 -0.2538 -0.161675 0.257275 -0.3164 0.523275 -0.47285 0.792725ZM13.1491 15.49075c-0.312925 -0.333775 -0.620625 -0.69535 -0.9231 -1.083025 0.299 0.0139 0.603225 0.02085 0.910925 0.02085s0.62235 0 0.926575 -0.019125c-0.299 0.38595 -0.604975 0.747525 -0.9144 1.0813Zm3.855825 2.086125c-0.1319 0.07225 -0.280825 0.107675 -0.431125 0.10255 -0.3164 0 -1.2169 -0.139075 -2.63545 -1.408125l-0.2034 -0.186c0.509775 -0.547875 0.98305 -1.1286 1.4168 -1.738425 0.740725 -0.070675 1.47595 -0.190325 2.20085 -0.358125 0.0765 0.337275 0.13735 0.667575 0.17385 0.9857 0.17385 1.310775 -0.026075 2.3121 -0.521525 2.59545v0.006975Zm0.917875 -8.80685c0.32665 0.0997 0.648075 0.21575 0.9631 0.347675 1.232525 0.521525 1.999175 1.190825 1.99745 1.76275 -0.00175 0.57195 -0.76665 1.244725 -2.000925 1.75755 -0.297275 0.1217 -0.611925 0.2347 -0.9457 0.335525 -0.2182 -0.720175 -0.483575 -1.425175 -0.794475 -2.11045 0.30595 -0.68215 0.566675 -1.38365 0.78055 -2.100025v0.006975ZM13.924425 5.451375c1.423775 -1.274275 2.31385 -1.4116 2.63025 -1.4116 0.146725 -0.004725 0.292025 0.0301 0.4207 0.100825 0.497175 0.28335 0.69535 1.28295 0.537175 2.607625 -0.040525 0.3383 -0.09855 0.674275 -0.17385 1.00655 -0.720375 -0.167425 -1.4509 -0.28765 -2.18695 -0.35985 -0.4383 -0.615075 -0.916825 -1.20045 -1.43245 -1.752325 0.06605 -0.071275 0.1356 -0.1356 0.206875 -0.198175l-0.00175 0.00695Zm-0.790975 0.775325c0.312925 0.333775 0.620625 0.695375 0.921375 1.08305 -0.297275 -0.012175 -0.6015 -0.020875 -0.9092 -0.020875s-0.62235 0 -0.926575 0.020875c0.29725 -0.38595 0.601475 -0.749275 0.9144 -1.08305Zm-3.855825 -2.0861c0.1319 -0.07015 0.28015 -0.10375 0.4294 -0.09735 0.3132 0.01305 0.62035 0.090575 0.902225 0.227725 0.6371 0.300375 1.223575 0.698 1.738425 1.17865l0.2034 0.186025c-0.51035 0.547825 -0.984225 1.12855 -1.41855 1.7384 -0.74 0.0717 -1.474575 0.191325 -2.1991 0.358125 -0.0765 -0.33725 -0.139075 -0.66755 -0.17385 -0.985675 -0.1808 -1.312525 0.027825 -2.31385 0.516325 -2.59895l0.001725 -0.00695Zm-1.880975 4.95275c0.3094 -0.12815 0.625025 -0.2407 0.9457 -0.33725 0.217325 0.720225 0.48215 1.42525 0.792725 2.11045 -0.305075 0.67775 -0.5658 1.374575 -0.78055 2.0861 -0.32665 -0.0997 -0.648075 -0.21575 -0.963075 -0.347675 -1.2343 -0.521525 -1.9992 -1.190825 -1.9992 -1.76275 0 -0.57195 0.771875 -1.236025 2.0044 -1.748875Zm5.7368 0.17385c-0.881375 -0.00095 -1.59665 0.712775 -1.5976 1.59415 -0.000975 0.881375 0.71275 1.596625 1.594125 1.5976 0.881375 0.00095 1.59665 -0.71275 1.5976 -1.594125 0.00325 -0.4249 -0.163275 -0.8335 -0.462575 -1.1351s-0.70665 -0.471225 -1.13155 -0.471225v0.0087Zm0 0c-0.881375 -0.00095 -1.59665 0.712775 -1.5976 1.59415 -0.000975 0.881375 0.71275 1.596625 1.594125 1.5976 0.881375 0.00095 1.59665 -0.71275 1.5976 -1.594125 0.00325 -0.4249 -0.163275 -0.8335 -0.462575 -1.1351s-0.70665 -0.471225 -1.13155 -0.471225v0.0087Zm0 0c-0.881375 -0.00095 -1.59665 0.712775 -1.5976 1.59415 -0.000975 0.881375 0.71275 1.596625 1.594125 1.5976 0.881375 0.00095 1.59665 -0.71275 1.5976 -1.594125 0.00325 -0.4249 -0.163275 -0.8335 -0.462575 -1.1351s-0.70665 -0.471225 -1.13155 -0.471225v0.0087Zm8.579125 1.6063c0 -1.197775 -1.409875 -2.25995 -3.577675 -2.908375 0.521525 -2.202575 0.293775 -3.9549 -0.74405 -4.547725 -0.254475 -0.141325 -0.54165 -0.213275 -0.8327 -0.2086 -0.9683 0 -2.19215 0.67625 -3.428175 1.8462 -1.236025 -1.16125 -2.4564 -1.834025 -3.42295 -1.834025 -0.295575 -0.006525 -0.587425 0.066725 -0.844875 0.212075 -1.032625 0.59455 -1.24645 2.33645 -0.731875 4.5286 -2.157375 0.64495 -3.5603 1.69845 -3.563775 2.891 -0.003475 1.19255 1.4116 2.25995 3.579425 2.90665 -0.521525 2.2043 -0.29555 3.9549 0.744025 4.5477 0.25355 0.142125 0.540375 0.214125 0.830975 0.208625 0.97005 0 2.1939 -0.67625 3.4299 -1.846225 1.2343 1.161275 2.454675 1.83405 3.422975 1.83405 0.295425 0.005425 0.587 -0.067775 0.844875 -0.2121 1.032625 -0.594525 1.2447 -2.336425 0.731875 -4.5199 2.157375 -0.657125 3.560275 -1.7106 3.562025 -2.901425v0.003475ZM13.926175 5.444425c1.423775 -1.274275 2.31385 -1.4116 2.630225 -1.4116 0.14675 -0.004725 0.29205 0.0301 0.4207 0.100825 0.4972 0.28335 0.695375 1.28295 0.537175 2.607625 -0.040525 0.3383 -0.09855 0.67425 -0.17385 1.00655 -0.72035 -0.16745 -1.4509 -0.28765 -2.186925 -0.35985 -0.4383 -0.615075 -0.91685 -1.200475 -1.43245 -1.752325 0.0643 -0.064325 0.13385 -0.12865 0.205125 -0.191225ZM9.616625 11.855725c0.1356 0.26075 0.279875 0.521525 0.4294 0.784025 0.1495 0.2625 0.30595 0.528475 0.4798 0.790975 -0.471125 -0.0678 -0.928325 -0.152975 -1.362925 -0.2538 0.121675 -0.441575 0.2764 -0.876175 0.453725 -1.3212ZM9.135075 8.54575c0.439825 -0.10255 0.9005 -0.18775 1.378575 -0.2538 -0.17385 0.257275 -0.32335 0.521525 -0.4798 0.797925 -0.156475 0.276425 -0.2938 0.52155 -0.42765 0.785775 -0.177325 -0.451975 -0.334375 -0.895275 -0.471125 -1.3299Zm0.905725 2.319075c0.21555 -0.455475 0.452575 -0.91095 0.711025 -1.3664 0.26075 -0.455475 0.540625 -0.898775 0.829225 -1.32295 0.505875 -0.03825 1.0274 -0.0591 1.564575 -0.057375 0.537175 0.00175 1.04305 0.020875 1.54545 0.06085 0.288575 0.4207 0.565 0.869225 0.82575 1.3125 0.260775 0.4433 0.500675 0.907475 0.716225 1.3612 -0.213825 0.455475 -0.451975 0.912675 -0.709275 1.36465 -0.257275 0.452 -0.54065 0.9005 -0.829225 1.324675 -0.505875 0.04 -1.0274 0.059125 -1.564575 0.059125s-1.04305 -0.0226 -1.54545 -0.0626c-0.288575 -0.4207 -0.566725 -0.858775 -0.8275 -1.3125 -0.26075 -0.453725 -0.491975 -0.90745 -0.709275 -1.361175h-0.00695ZM15.75325 8.297175c0.47285 0.06605 0.93005 0.151225 1.362925 0.25205 -0.12865 0.4294 -0.281625 0.869225 -0.45895 1.312525 -0.137325 -0.260775 -0.279875 -0.521525 -0.431125 -0.784025 -0.151225 -0.2625 -0.311175 -0.52675 -0.4659 -0.78055h-0.00695Zm0.4798 4.33215c0.149525 -0.2631 0.292075 -0.5256 0.42765 -0.787525 0.17385 0.452 0.3477 0.897025 0.469375 1.33165 -0.438075 0.10255 -0.89875 0.186 -1.376825 0.25205 0.16805 -0.257275 0.3303 -0.522675 0.486775 -0.796175h-0.006975ZM13.13345 6.2267c0.312925 0.333775 0.620625 0.695375 0.921375 1.08305 -0.297275 -0.012175 -0.6015 -0.020875 -0.9092 -0.020875s-0.62235 0 -0.926575 0.020875c0.29725 -0.38595 0.601475 -0.749275 0.9144 -1.08305Zm-3.855825 -2.0861c0.1319 -0.07015 0.28015 -0.10375 0.4294 -0.09735 0.3132 0.01305 0.62035 0.090575 0.902225 0.227725 0.6371 0.300375 1.223575 0.698 1.738425 1.17865l0.2034 0.186025c-0.51035 0.547825 -0.984225 1.12855 -1.41855 1.7384 -0.74 0.0717 -1.474575 0.191325 -2.1991 0.358125 -0.0765 -0.33725 -0.139075 -0.66755 -0.17385 -0.985675 -0.1808 -1.312525 0.027825 -2.31385 0.516325 -2.59895l0.001725 -0.00695ZM8.358 12.9544c-0.326625 -0.099725 -0.648075 -0.21575 -0.963075 -0.347675 -1.234275 -0.521525 -1.9992 -1.190825 -1.9992 -1.762775 0 -0.571925 0.7684 -1.23775 2.000925 -1.7506 0.3094 -0.12815 0.625025 -0.2407 0.9457 -0.33725 0.217325 0.720225 0.48215 1.42525 0.792725 2.11045 -0.303975 0.6784 -0.563525 1.3758 -0.777075 2.08785Zm3.998375 3.3204c-1.423775 1.27425 -2.31385 1.40985 -2.631975 1.40985 -0.14675 0.004875 -0.2921 -0.02995 -0.4207 -0.100825 -0.497175 -0.283375 -0.695375 -1.28295 -0.537175 -2.60765 0.040375 -0.337725 0.0984 -0.673125 0.17385 -1.0048 0.720575 0.166 1.45105 0.2856 2.186925 0.358125 0.437775 0.615475 0.91635 1.2009 1.432475 1.752325l-0.2034 0.192975Zm0.79445 -0.78405c-0.3129 -0.333775 -0.6206 -0.69535 -0.9231 -1.083025 0.299025 0.0139 0.60325 0.02085 0.91095 0.02085 0.3077 0 0.62235 0 0.926575 -0.019125 -0.30075 0.38595 -0.606725 0.747525 -0.91615 1.0813h0.001725Zm3.855825 2.086125c-0.1319 0.07225 -0.2808 0.107675 -0.431125 0.10255 -0.3164 0 -1.2169 -0.139075 -2.63545 -1.408125l-0.2034 -0.186c0.509775 -0.547875 0.983075 -1.1286 1.416825 -1.738425 0.7407 -0.070675 1.475925 -0.190325 2.20085 -0.358125 0.076475 0.337275 0.137325 0.667575 0.173825 0.9857 0.172125 1.310775 -0.0278 2.3121 -0.52325 2.59545l0.001725 0.006975Zm1.8775 -4.944075c-0.297275 0.121675 -0.611925 0.234675 -0.9457 0.3355 -0.218175 -0.72015 -0.483575 -1.425175 -0.79445 -2.11045 0.30535 -0.6776 0.5661 -1.37445 0.78055 -2.0861 0.326625 0.099725 0.648075 0.215775 0.963075 0.3477 1.23255 0.521525 1.9992 1.1908 1.99745 1.76275 -0.001725 0.57195 -0.768375 1.2308 -2.00265 1.74365l0.001725 0.00695Zm-5.7507 -0.177325c0.881375 0.00095 1.59665 -0.71275 1.5976 -1.594125 0.000975 -0.881375 -0.71275 -1.59665 -1.594125 -1.597625 -0.881375 -0.00095 -1.59665 0.71275 -1.5976 1.594125 -0.000925 0.4234 0.166625 0.829775 0.465675 1.129475 0.29905 0.299725 0.70505 0.46815 1.12845 0.46815ZM1.082705 21.929875V2.687275L0.25 3.521725v19.237375h21.21745l0.830975 -0.829225H1.082705Z" stroke-width="0.25"></path>
</svg>