<svg xmlns="http://www.w3.org/2000/svg" fill="none" viewBox="0 0 96 96" id="D3--Streamline-Svg-Logos" height="24" width="24">
  <desc>
    D3 Streamline Icon: https://streamlinehq.com
  </desc>
  <path fill="url(#a)" d="M94.8537 67.9862c.0421-.4095.0725-.8228.096-1.2381.0284-.4917-29.5911-28.595-29.5911-28.595h-.7082s30.0221 31.6676 30.2033 29.8331Z"></path>
  <path fill="url(#b)" d="M31.6597 58.2375c-.0392.0862-.0784.1723-.1186.2585-.0421.0902-.0852.1803-.1283.2694-.9442 1.9688 13.2182 15.8138 14.3573 14.132.0519-.0745.1038-.1528.1557-.2273.0578-.0881.1146-.1723.1714-.2605.911-1.383-14.033-15.0713-14.4375-14.1721Z"></path>
  <path fill="url(#c)" d="M51.6727 77.7068c-.0401.0881-.3251.57-.5857.8247-.0441.0882 13.8254 13.843 13.8254 13.843h1.2489c.0009 0-13.0193-14.0859-14.4886-14.6677Z"></path>
  <path fill="url(#d)" d="M94.9696 66.4984c-.6484 14.3789-12.5442 25.876-27.0778 25.876H65.927L51.413 78.0759c1.194-1.6837 2.3038-3.4281 3.2921-5.247h13.1867c4.1707 0 7.5646-3.392 7.5646-7.5646 0-4.1706-3.3939-7.5645-7.5646-7.5645h-7.8035c.5945-3.1432.9197-6.3843.9197-9.6999 0-3.3665-.331-6.6536-.9471-9.8467h4.8474l29.9761 29.5363c.0353-.3957.0637-.7914.0852-1.1911ZM8.88484 3.48047H1V23.0261h7.88484c13.77156 0 24.97686 11.2023 24.97686 24.9738 0 3.7466-.8355 7.3031-2.3204 10.4962l14.3846 14.1741c4.7231-7.067 7.4843-15.5513 7.4843-24.6703 0-24.5478-19.9746-44.51943-44.52536-44.51943Z"></path>
  <path fill="url(#e)" d="M67.8916 3.48047H35.9624C43.761 8.24174 50.2188 14.9933 54.6186 23.0261h13.273c4.1706 0 7.5645 3.3919 7.5645 7.5645 0 4.1716-3.3939 7.5636-7.5645 7.5636h-2.9825l29.9761 29.5363c.0705-.8012.1146-1.6074.1146-2.4262 0-6.589-2.3645-12.6334-6.2903-17.3378 3.9258-4.7025 6.2903-10.7479 6.2903-17.3359 0-14.9479-12.1593-27.11013-27.1082-27.11013Z"></path>
  <path fill="url(#f)" d="M65.927 92.3745H36.1909c5.9856-3.6966 11.1602-8.5764 15.2221-14.2985l14.514 14.2985ZM45.9259 72.6702 31.5422 58.4961c-3.9737 8.5401-12.6333 14.4797-22.65736 14.4797H1v19.5436h7.88484c15.43076 0 29.05046-7.8927 37.04106-19.8492Z"></path>
  <defs>
    <linearGradient id="a" x1="-2439.19" x2="3131" y1="-2738.07" y2="3281.77" gradientUnits="userSpaceOnUse">
      <stop stop-color="#f9a03c"></stop>
      <stop offset="1" stop-color="#f7974e"></stop>
    </linearGradient>
    <linearGradient id="b" x1="-3792.83" x2="1498.86" y1="-3637.43" y2="1497.82" gradientUnits="userSpaceOnUse">
      <stop stop-color="#f9a03c"></stop>
      <stop offset="1" stop-color="#f7974e"></stop>
    </linearGradient>
    <linearGradient id="c" x1="-3312.94" x2="1320.59" y1="-3764.78" y2="1694.82" gradientUnits="userSpaceOnUse">
      <stop stop-color="#f9a03c"></stop>
      <stop offset="1" stop-color="#f7974e"></stop>
    </linearGradient>
    <linearGradient id="d" x1="1066.49" x2="7288.79" y1="-158.457" y2="8523.99" gradientUnits="userSpaceOnUse">
      <stop stop-color="#f26d58"></stop>
      <stop offset="1" stop-color="#f9a03c"></stop>
    </linearGradient>
    <linearGradient id="e" x1="971.329" x2="7429" y1="251.205" y2="4152.61" gradientUnits="userSpaceOnUse">
      <stop stop-color="#b84e51"></stop>
      <stop offset="1" stop-color="#f68e48"></stop>
    </linearGradient>
    <linearGradient id="f" x1="3051.54" x2="3138.95" y1="856.902" y2="5078.01" gradientUnits="userSpaceOnUse">
      <stop stop-color="#f9a03c"></stop>
      <stop offset="1" stop-color="#f7974e"></stop>
    </linearGradient>
  </defs>
</svg>