<svg xmlns="http://www.w3.org/2000/svg" fill="none" viewBox="0 0 96 96" id="Ffmpeg-Icon--Streamline-Svg-Logos" height="24" width="24">
  <desc>
    Ffmpeg Icon Streamline Icon: https://streamlinehq.com
  </desc>
  <path fill="#0b4819" d="M1.7832 22.2022V11.0388l7.49383 2.5817v10.385L1.7832 22.2022Z"></path>
  <path fill="#0b4819" d="M7.82568 68.0951V26.5872l7.16292 1.5153v38.5769l-7.16292 1.4157Z"></path>
  <path fill="#105c80" d="m42.8607 11.0203-18.409 21.1133v8.9846L51.755 10.3324l43.2454-3.34778-63.611 66.30298 8.4683.4459 46.2025-47.2566v44.6642l-5.1328 4.8248 13.0173.7032v12.3615l-40.8322-3.1624L73.927 65.6758v-9.9514L44.1692 85.1757 8.53711 82.4209l57.15439-61.466-9.4059.5087-41.2965 45.2158V28.1025l3.9116-4.618-9.62355.521V13.6204l33.58355-2.6001Z"></path>
  <path fill="#0b4819" d="m7.82568 26.5873 4.14302-4.9872 6.9315 1.8846-3.9116 4.6179-7.16292-1.5153Z"></path>
  <path fill="#084010" d="m17.8604 30.8971 6.5913 1.2365v8.9846l-6.5913-.5393v-9.6818Z"></path>
  <path fill="#0c541e" d="m25.2388 75.2795 6.1501-1.9918 8.4683.4459-5.5878 2.0669-9.0306-.521Z"></path>
  <path fill="#1a5c34" d="m37.4782 8.01733 5.3825 3.00307-18.409 21.1132-6.5913-1.2364L37.4782 8.01733Z"></path>
  <path fill="#0b4819" d="M17.8604 40.579 46.9991 7.21143l4.7559 3.12107-27.3033 30.7858-6.5913-.5393Z"></path>
  <path fill="#1a5c34" d="m51.8602 19.2419 4.4249 2.2217-41.2965 45.2158-7.16292 1.4157L51.8602 19.2419Z"></path>
  <path fill="#0b4819" d="m1 84.9903 60.9772-66.3459 3.714 2.3105-57.15447 61.466L1 84.9903Z"></path>
  <path fill="#1a5c34" d="m70.8625 56.3896 3.0643-.665-29.7577 29.4513-5.2921 3.0215 31.9855-31.8078Z"></path>
  <path fill="#0b4819" d="M70.8623 67.2067V56.3896l3.0643-.665v9.9514l-3.0643 1.5307Z"></path>
  <path fill="#0b4819" d="M48.4556 89.0061 70.862 67.2064l3.0643-1.5306-20.8145 20.1924-4.6562 3.1379Z"></path>
  <path fill="#13802d" d="m83.9944 73.1988-5.5618 5.2262 2.4944-2.4591 5.1327-4.8248-2.0653 2.0577Z"></path>
  <path fill="#0b4819" d="m34.2695 75.8004 49.725-51.2449 2.0654 1.9214-46.2026 47.2566-5.5878 2.0669Z"></path>
  <path fill="#084010" d="m83.9946 24.5555 2.0654 1.9214v44.6642l-2.0654 2.0577V24.5555Z"></path>
  <path fill="#084010" d="m92.5605 79.26 1.3836-2.5909v12.3615l-1.3836 3.7109V79.26Z"></path>
  <path fill="#1a5c34" d="m93.7067 3.25842 1.2932 3.72623-63.611 66.30305-6.1501 1.9918L93.7067 3.25842Z"></path>
  <path fill="url(#a)" d="M37.4778 8.01733 17.86 30.8972v9.6818L46.9987 7.21141l46.7081-3.95299L25.2389 75.2795l9.0306.5209 49.7249-51.2449v48.6433l-5.5617 5.2262 14.1281.8351v13.4815l-44.105-3.7354 22.4064-21.7997V56.3894L38.8767 88.1972 1 84.9904l60.9772-66.346-10.1169.5976L7.82581 68.0951V26.5872L11.9688 21.6l-10.18586.6021V11.0388L37.4778 8.01733Z"></path>
  <defs>
    <radialGradient id="a" cx="0" cy="0" r="1" gradientTransform="translate(1784.54 1690.17) scale(4532.15)" gradientUnits="userSpaceOnUse">
      <stop stop-color="#ffffff"></stop>
      <stop offset="1" stop-color="#007808"></stop>
    </radialGradient>
  </defs>
</svg>