<svg xmlns="http://www.w3.org/2000/svg" fill="none" viewBox="0 0 24 24" id="Handlebars--Streamline-Svg-Logos" height="24" width="24">
  <desc>
    Handlebars Streamline Icon: https://streamlinehq.com
  </desc>
  <path fill="#423426" d="M8.898725 9.15415c0.81695 -0.003575 1.65475 0.2308 2.2897 0.759 0.325375 0.263325 0.5882 0.593775 0.811375 0.94555 0.4016 -0.649175 0.988275 -1.200775 1.711675 -1.46665 0.881525 -0.33095 1.877925 -0.308075 2.757925 0.016275 0.76865 0.280625 1.440725 0.769675 2.05025 1.307525 0.47685 0.42095 0.918125 0.881525 1.4092 1.2867 0.258775 0.20995 0.53685 0.4067 0.8551 0.515475 0.42295 0.1444 0.9232 0.00815 1.225675 -0.317725 0.2801 -0.305025 0.262825 -0.8322 -0.04575 -1.1108 -0.196225 -0.169275 -0.53175 -0.135225 -0.67055 0.0905 -0.1215 0.17895 -0.053375 0.402125 0.0417 0.575475 -0.252675 -0.184525 -0.50585 -0.441775 -0.504825 -0.7773 -0.05235 -0.387875 0.235375 -0.730025 0.58005 -0.86575 0.672575 -0.268925 1.515975 -0.037125 1.94045 0.555125 0.408225 0.5526 0.440775 1.279075 0.3696 1.937425 -0.085925 0.6253 -0.435675 1.2089 -0.954225 1.57085 -0.727975 0.519575 -1.650675 0.680725 -2.528625 0.669525 -0.8439 -0.022875 -1.67915 -0.2135 -2.461025 -0.5287 -1.30755 -0.52565 -2.5312 -1.252125 -3.881425 -1.672025 -0.447875 -0.173875 -0.924225 -0.267925 -1.4031 -0.2969 -0.381275 -0.002525 -0.742725 -0.020325 -1.10265 0.004075 -0.43925 0.0422 -0.875925 0.132175 -1.2872 0.293325 -1.373125 0.427025 -2.615075 1.1718 -3.9475 1.698475 -1.125025 0.4377 -2.37155 0.64105 -3.565725 0.39805 -0.6679975 -0.135225 -1.3329475 -0.430575 -1.7838725 -0.95675 -0.385855 -0.447375 -0.57090125 -1.046225 -0.5526 -1.6329 -0.0213515 -0.5536 0.10015 -1.1418 0.4661775 -1.5729 0.3406075 -0.408725 0.88914 -0.61615 1.4158125 -0.5704 0.339085 0.015775 0.6827325 0.1637 0.8921825 0.4367 0.164725 0.21605 0.1749 0.511925 0.1027 0.7646 -0.08795 0.227225 -0.269425 0.40465 -0.466675 0.5409 0.10065 -0.1698 0.16165 -0.393975 0.0427 -0.5714 -0.146425 -0.2364 -0.5068525 -0.2603 -0.6974925 -0.0661 -0.2348675 0.241475 -0.2841775 0.635975 -0.1265825 0.93185 0.1708125 0.3101 0.52413 0.487025 0.866275 0.523125 0.5175 0.044725 0.9664 -0.27605 1.34615 -0.587175 0.78595 -0.67665 1.4936 -1.4509 2.36545 -2.023325 0.71885 -0.481925 1.5658 -0.8078 2.439675 -0.803725Z" stroke-width="0.25"></path>
</svg>