<svg xmlns="http://www.w3.org/2000/svg" fill="none" viewBox="0 0 24 24" id="Nx--Streamline-Svg-Logos" height="24" width="24">
  <desc>
    Nx Streamline Icon: https://streamlinehq.com
  </desc>
  <path fill="#012f55" d="m3.86415 4.6994 5.137425 8.6492 0.0045 -3.91505 2.980975 4.659625 -3.0672 4.820375 -5.084425 -8.251325 -0.011675 8.638425H0.25v-14.60125h3.61415ZM12.575325 8.7815l1.48735 2.3352 0.01885 0.032325c0.971975 -1.4788 2.62325 -2.36875 4.39285 -2.367525 2.868475 0 5.20085 2.4278 5.257675 5.286l0.001 0.096625h-0.002675l-0.0001 0.036275c-0.005175 0.237325 -0.131925 0.456225 -0.33675 0.578575 -0.212125 0.12675 -0.47575 0.130675 -0.691575 0.010325 -0.208375 -0.116175 -0.341625 -0.331175 -0.353875 -0.568275l-0.00085 -0.025475 -0.000425 -0.032825c-0.0114 -0.452025 -0.260025 -0.63545 -0.586525 -0.770725l-0.0483 -0.019475 -0.049325 -0.018925 -0.0502 -0.018575 -0.2605 -0.09245 -0.053225 -0.0195 -0.053325 -0.0202 -0.053325 -0.02105c-0.008875 -0.003575 -0.01775 -0.0072 -0.026625 -0.010875l-0.053125 -0.0226 -0.05285 -0.023825c-0.2107 -0.098 -0.412125 -0.229225 -0.572325 -0.437875l-0.0188 -0.0251 -0.018675 -0.026175 -0.02795 -0.04105 -0.03745 -0.0578 -0.1184 -0.1895 -0.043125 -0.066825 -0.03405 -0.0508 -0.023625 -0.03405 -0.037 -0.051225 -0.025775 -0.03415 -0.02675 -0.034075c-0.00455 -0.005675 -0.00915 -0.01135 -0.013775 -0.017l-0.028325 -0.03385c-0.27915 -0.326075 -0.715925 -0.61915 -1.56085 -0.61915 -0.698725 -0.00025 -1.368925 0.277225 -1.863 0.7713 -0.494075 0.494075 -0.771525 1.16425 -0.771275 1.862975 0.0019 0.099625 0.0255 0.1975 0.068975 0.2869l0.01365 0.02655 3.143525 4.947025H15.5976l-1.534925 -2.316325 -1.508 2.316325H9.0887L12.3975 14.091375 9.006975 8.7815h3.56835Zm11.161325 6.128075c0.035225 0.246275 0.000375 0.497475 -0.1006 0.724825 -0.121325 0.2807 -0.292425 0.331475 -0.406425 0.32885l-0.018975 -0.000925 -0.017725 -0.0018 -0.016375 -0.002425 -0.02175 -0.00445 -0.018 -0.0048 -0.02325 -0.008 -0.008425 -0.0039 -0.010225 -0.005775 -0.01535 -0.009575 -0.01235 -0.008475 -0.0136 -0.010175 -0.014375 -0.01185c-0.00245 -0.0021 -0.004925 -0.0043 -0.007375 -0.00655l-0.014825 -0.014325c-0.064025 -0.065725 -0.12145 -0.178075 -0.01955 -0.334625 0.075375 -0.1164 0.179725 -0.181675 0.2889 -0.2403l0.110275 -0.05825c0.1321 -0.071275 0.2595 -0.1545 0.34 -0.327475ZM12.5843 4.6994v3.71205l-0.008075 0.041325h-3.56925l-0.0009 -0.041325 0.0045 -3.71205h3.573725Z" stroke-width="0.25"></path>
  <path fill="#96d8e9" d="M18.092625 12.500675c-0.85505 -0.016225 -1.62755 0.508025 -1.928325 1.3086 0.5007 -0.748775 1.454075 -1.04965 2.293875 -0.7239 0.388 0.158075 0.89815 0.41315 1.302325 0.276625 -0.384375 -0.53945 -1.005475 -0.8602 -1.667875 -0.861325Z" stroke-width="0.25"></path>
  <path fill="#48c4e5" d="M22.1423 14.25755c0 -0.4374 -0.238 -0.5389 -0.731975 -0.718525 -0.36645 -0.12755 -0.7823 -0.27125 -1.084975 -0.666425 -0.059275 -0.07815 -0.114075 -0.166175 -0.17245 -0.259575 -0.130775 -0.241925 -0.308125 -0.4556 -0.521825 -0.6287 -0.2883 -0.211975 -0.666425 -0.31525 -1.156825 -0.31525 -0.983975 0.000675 -1.870475 0.594625 -2.245375 1.5044 0.47395 -0.65765 1.261625 -1.013975 2.06845 -0.93575 0.80685 0.078225 1.5114 0.579225 1.8502 1.315675 0.16925 0.2793 0.503075 0.412675 0.8182 0.326925 0.482325 -0.1033 0.449075 0.352975 1.177475 0.50745l-0.0009 -0.130225Z" stroke-width="0.25"></path>
</svg>