<svg xmlns="http://www.w3.org/2000/svg" fill="none" viewBox="0 0 24 24" id="Prisma--Streamline-Svg-Logos" height="24" width="24">
  <desc>
    Prisma Streamline Icon: https://streamlinehq.com
  </desc>
  <path fill="#000000" d="M21.602 18.15365 13.520475 0.9913025c-0.204575 -0.4302975 -0.6286 -0.7138 -1.104425 -0.7384225 -0.4769 -0.0319545 -0.932 0.203975 -1.180775 0.6121225L2.46995 15.0619c-0.272115 0.43765 -0.26639 0.993225 0.0146875 1.42515L6.770075 23.123475c0.332975 0.511625 0.962825 0.74325 1.547925 0.569225l12.436325 -3.6786c0.37885 -0.110775 0.691075 -0.38035 0.8559 -0.739 0.1626 -0.35695 0.1598 -0.76735 -0.007625 -1.12205l-0.0006 0.0006Zm-1.809325 0.736075L9.239725 22.01025c-0.321925 0.09575 -0.630925 -0.183275 -0.56395 -0.50815l3.77025 -18.0529c0.0705 -0.3378 0.536925 -0.39125 0.684375 -0.078725l6.9795 14.82135c0.06245 0.133675 0.0632 0.287975 0.00205 0.42225 -0.06115 0.134275 -0.17805 0.235 -0.319875 0.27565h0.0006Z" stroke-width="0.25"></path>
</svg>