<svg xmlns="http://www.w3.org/2000/svg" fill="none" viewBox="0 0 24 24" id="React-Router--Streamline-Svg-Logos" height="24" width="24">
  <desc>
    React Router Streamline Icon: https://streamlinehq.com
  </desc>
  <path fill="#000000" d="M7.4162 14.099375c1.17665 0 2.1305 -0.95385 2.1305 -2.1305s-0.95385 -2.1305 -2.1305 -2.1305c-1.176625 0 -2.130475 0.95385 -2.130475 2.1305s0.95385 2.1305 2.130475 2.1305ZM2.380495 18.36035c1.17663 0 2.130505 -0.95385 2.130505 -2.130475 0 -1.17665 -0.953875 -2.1305 -2.130505 -2.1305C1.203855 14.099375 0.25 15.053225 0.25 16.229875c0 1.176625 0.953855 2.130475 2.130495 2.130475Zm19.239005 0c1.17665 0 2.1305 -0.95385 2.1305 -2.130475 0 -1.17665 -0.95385 -2.1305 -2.1305 -2.1305 -1.176625 0 -2.1305 0.95385 -2.1305 2.1305 0 1.176625 0.953875 2.130475 2.1305 2.130475Z" stroke-width="0.25"></path>
  <path fill="#d0021b" d="M14.622225 12.058625c-0.068125 -0.711775 -0.1028 -1.304225 -0.6481 -1.7206 -0.690575 -0.527325 -1.4728 -0.185175 -2.436375 -0.53295 -0.9468 -0.22905 -1.649075 -1.0697 -1.649075 -2.071675 0 -1.1782 0.971025 -2.1333 2.168825 -2.1333 0.88715 0 1.6499 0.523925 1.98585 1.274375 0.5142 0.976675 0.180025 1.97065 0.82605 2.471325 0.764975 0.592825 1.796275 0.158675 2.94705 0.720375 0.36975 0.1699 0.682725 0.4394 0.903275 0.7734 0.220525 0.334 0.348625 0.7325 0.348625 1.16045 0 1.001975 -0.702275 1.8426 -1.649075 2.07165 -0.96355 0.3478 -1.7458 0.00565 -2.436375 0.532975 -0.77655 0.592975 -0.360825 1.585 -0.993725 2.63295 -0.359225 0.69005 -1.089375 1.16235 -1.931675 1.16235 -1.1978 0 -2.168825 -0.955125 -2.168825 -2.133325 0 -0.85585 0.5124 -1.594 1.251925 -1.933825 1.15075 -0.5617 2.18205 -0.127575 2.947025 -0.7204 0.4413 -0.342 0.5346 -0.869575 0.5346 -1.553775Z" stroke-width="0.25"></path>
</svg>