<svg xmlns="http://www.w3.org/2000/svg" fill="none" viewBox="0 0 24 24" id="Threejs--Streamline-Svg-Logos" height="24" width="24">
  <desc>
    Threejs Streamline Icon: https://streamlinehq.com
  </desc>
  <path fill="#000000" d="M0.3702225 0.5759375c-0.048455 -0.196165 0.1334825 -0.37128925 0.327655 -0.315385L6.355725 1.889465c0.05065 -0.00018 0.10075 0.01425 0.143525 0.0413475L17.65775 5.1434c0.04625 0.00095 0.0918 0.01405 0.1315 0.0378l5.658275 1.629125c0.1944 0.05595 0.2552 0.30145 0.109425 0.441675L6.4823 23.67645c-0.14575 0.1402 -0.388575 0.070025 -0.437075 -0.1263L3.212875 12.083925c-0.0038 -0.01175 -0.006775 -0.0238 -0.0089 -0.035975L0.3702225 0.5759375ZM5.21675 18.0061l1.229225 4.976275 3.7017 -3.56085 -4.930925 -1.415425Zm3.81295 -3.935375L5.4458 17.52525l4.774375 1.37065 -1.190475 -4.825175Zm0.532 -0.0369 1.186675 4.8099L14.3225 15.4057l-4.7608 -1.371875Zm-5.734275 -1.652375 1.19185 4.825375 3.579675 -3.4504 -4.771525 -1.374975Zm9.4287 -2.389175L9.6147 13.5023l4.8527 1.3984 -1.211275 -4.908425Zm0.510225 -0.124825 1.211225 4.908175L18.629 11.263325l-4.86265 -1.395875Zm-6.1444 -1.5039L3.972725 11.87665l4.861525 1.400825 -1.2123 -4.913925Zm0.5083 -0.132525 1.190475 4.825075 3.583875 -3.45455 -4.77435 -1.370525ZM2.3974425 6.59245l1.2115825 4.905175 3.6466 -3.510575 -4.8581825 -1.3946Zm15.1100325 -0.681025L13.923575 9.36595l4.77435 1.37065 -1.19045 -4.825175Zm0.512175 -0.11725 1.207425 4.893825 3.63745 -3.4989 -4.844875 -1.394925Zm-6.169725 -1.5007L8.2821 7.728125l4.7519 1.36405 -1.184075 -4.7987Zm0.509175 -0.129025 1.19215 4.8309 3.58495 -3.455575 -4.7771 -1.375325Zm-6.147275 -1.5069L2.627925 6.112075l4.774375 1.370675 -1.190475 -4.8252Zm0.51265 -0.115375 1.1875 4.813 3.575225 -3.441775 -4.762725 -1.371225ZM0.989115 0.8909475 2.20042 5.794725 5.8392 2.28732 0.989115 0.8909475Z" stroke-width="0.25"></path>
</svg>