<svg xmlns="http://www.w3.org/2000/svg" shape-rendering="geometricPrecision" text-rendering="geometricPrecision" image-rendering="optimizeQuality" fill-rule="evenodd" clip-rule="evenodd" viewBox="0 0 512 496.652"><path fill="#F60" fill-rule="nonzero" d="M284.148 381.448c0 63.622-51.573 115.204-115.196 115.204-63.631 0-115.204-51.58-115.204-115.204 0-63.624 51.573-115.204 115.204-115.204 63.623 0 115.196 51.58 115.196 115.204z"/><path fill="#FC0" fill-rule="nonzero" d="M512 220.158c0 63.615-51.573 115.204-115.196 115.204-63.631 0-115.204-51.589-115.204-115.204 0-63.623 51.573-115.213 115.204-115.213 63.623 0 115.196 51.589 115.196 115.213z"/><path fill="#0089CC" fill-rule="nonzero" d="M230.4 217.613c0 63.615-51.573 115.204-115.204 115.204C51.581 332.817 0 281.228 0 217.613c0-63.623 51.581-115.214 115.196-115.214 63.631 0 115.204 51.589 115.204 115.214z"/><path fill="#009939" fill-rule="nonzero" d="M460.796 381.448c0 63.622-51.573 115.204-115.213 115.204-63.616 0-115.196-51.58-115.196-115.204 0-63.624 51.58-115.204 115.196-115.204 63.64 0 115.213 51.58 115.213 115.204z"/><path fill="#BF0000" fill-rule="nonzero" d="M371.2 115.204c0 63.623-51.58 115.204-115.205 115.204-63.623 0-115.204-51.58-115.204-115.204C140.791 51.58 192.372 0 255.995 0 319.62 0 371.2 51.58 371.2 115.204z"/><path fill="#FC0007" fill-rule="nonzero" d="M281.604 220.158c0 2.423.211 4.797.363 7.187 51.1-11.79 89.237-57.476 89.237-112.155 0-2.423-.21-4.804-.363-7.195-51.099 11.797-89.237 57.485-89.237 112.164v-.001zm0 0z"/><path fill="#1CD306" fill-rule="nonzero" d="M296.811 277.2c19.854 34.708 57.163 58.161 100.012 58.161 17.464 0 33.957-4.003 48.794-10.962-19.845-34.707-57.155-58.16-100.012-58.16-17.464 0-33.957 4.003-48.794 10.961z"/><path fill="#0F7504" fill-rule="nonzero" d="M230.4 381.448c0 28.147 10.118 53.903 26.889 73.908 16.755-20.005 26.871-45.761 26.871-73.908s-10.118-53.904-26.871-73.909c-16.771 20.005-26.889 45.762-26.889 73.909z"/><path fill="#0C5E87" fill-rule="nonzero" d="M69.579 323.378a114.678 114.678 0 0045.611 9.433c42.426 0 79.39-22.995 99.386-57.137a114.683 114.683 0 00-45.61-9.425c-42.427 0-79.399 22.995-99.387 57.129z"/><path fill="#6B0001" fill-rule="nonzero" d="M141.295 105.473c-.27 3.21-.498 6.435-.498 9.72 0 54.638 38.078 100.282 89.118 112.121.261-3.209.49-6.434.49-9.712 0-54.638-38.07-100.298-89.11-112.13v.001zm0 0z"/><path fill="#fff" fill-rule="nonzero" d="M152.053 367.181h-18.02c-15.91 0-28.847-12.895-28.847-28.762V175.3c0-15.868 12.937-28.772 28.847-28.772h225.975c15.909 0 28.839 12.904 28.839 28.772v163.119c0 15.867-12.928 28.762-28.839 28.762h-76.984l-154.457 75.716 23.485-75.716h.001z"/></svg>