<svg xmlns="http://www.w3.org/2000/svg" fill="none" viewBox="0 0 24 24" id="Yarn--Streamline-Svg-Logos" height="24" width="24">
  <desc>
    Yarn Streamline Icon: https://streamlinehq.com
  </desc>
  <path fill="#368fb9" d="M12 0.25C5.51255 0.25 0.25 5.51255 0.25 12s5.26255 11.75 11.75 11.75 11.75 -5.26255 11.75 -11.75S18.48745 0.25 12 0.25Z" stroke-width="0.25"></path>
  <path fill="#ffffff" d="M18.91395 16.22825c-0.725875 0.1724 -1.09335 0.3312 -1.9916 0.916425 -1.401825 0.907325 -2.935225 1.32925 -2.935225 1.32925s-0.127025 0.190525 -0.4945 0.276725c-0.63515 0.15425 -3.025975 0.285825 -3.243725 0.29035 -0.58525 0.00455 -0.94365 -0.1497 -1.04345 -0.39015 -0.30395 -0.725875 0.435525 -1.04345 0.435525 -1.04345s-0.163325 -0.0998 -0.2586 -0.190525c-0.086175 -0.0862 -0.176925 -0.2586 -0.20415 -0.195075 -0.1134 0.276725 -0.172375 0.9527 -0.47635 1.25665 -0.417375 0.421925 -1.20675 0.281275 -1.674025 0.0363 -0.51265 -0.2722 0.0363 -0.911875 0.0363 -0.911875s-0.27675 0.163325 -0.49905 -0.1724c-0.1996 -0.3085 -0.3856 -0.83475 -0.3357 -1.483475 0.054425 -0.7395 0.8801 -1.456275 0.8801 -1.456275s-0.145175 -1.09335 0.331175 -2.2139c0.431 -1.020775 1.592375 -1.8419 1.592375 -1.8419s-0.975375 -1.079725 -0.61245 -2.050575c0.235925 -0.63515 0.331175 -0.6306 0.4083 -0.657825 0.2722 -0.10435 0.53535 -0.21775 0.730425 -0.430975 0.975375 -1.052525 2.218425 -0.8529 2.218425 -0.8529s0.589775 -1.792 1.134175 -1.442675c0.16785 0.108875 0.771225 1.45175 0.771225 1.45175s0.644225 -0.37655 0.7168 -0.235925c0.39015 0.757625 0.435525 2.204825 0.263125 3.08495 -0.29035 1.45175 -1.0162 2.23205 -1.30655 2.722 -0.06805 0.113425 0.7803 0.471825 1.315625 1.955325 0.4945 1.35645 0.05445 2.495175 0.131575 2.6222 0.0136 0.022675 0.01815 0.03175 0.01815 0.03175s0.567075 0.045375 1.705775 -0.657825c0.607925 -0.376525 1.32925 -0.79845 2.1504 -0.807525 0.7939 -0.0136 0.83475 0.9164 0.2359 1.061575Zm1.079725 -0.666875c-0.08165 -0.644225 -0.62605 -1.0888 -1.3247 -1.079725 -1.04345 0.0136 -1.919025 0.553475 -2.499725 0.911875 -0.226825 0.140625 -0.4219 0.244975 -0.58975 0.3221 0.036275 -0.52625 0.004525 -1.21585 -0.267675 -1.973475 -0.331175 -0.907325 -0.775775 -1.465325 -1.09335 -1.78745 0.367475 -0.535325 0.87105 -1.315625 1.10695 -2.522375 0.20415 -1.029825 0.14065 -2.631275 -0.326625 -3.52955 -0.095275 -0.181475 -0.25405 -0.313025 -0.453675 -0.367475 -0.08165 -0.022675 -0.2359 -0.06805 -0.539875 0.01815 -0.4582 -0.94815 -0.616975 -1.047975 -0.739475 -1.129625 -0.25405 -0.163325 -0.553475 -0.199625 -0.83475 -0.095275 -0.376525 0.1361 -0.69865 0.499025 -1.0026 1.14325 -0.045375 0.095275 -0.0862 0.186 -0.122475 0.276725 -0.576175 0.04085 -1.4835 0.249525 -2.2502 1.079725 -0.095275 0.10435 -0.281275 0.181475 -0.47635 0.254075h0.004525c-0.399225 0.140625 -0.5807 0.467275 -0.802975 1.05705 -0.3085 0.825675 0.00905 1.637725 0.3221 2.163975 -0.42645 0.3811 -0.99355 0.989 -1.29295 1.701275 -0.372025 0.8801 -0.41285 1.742075 -0.39925 2.20935 -0.31755 0.335725 -0.807525 0.966325 -0.86195 1.674025 -0.0726 0.989 0.2858 1.660425 0.444575 1.905425 0.045375 0.072575 0.095275 0.13155 0.149725 0.190525 -0.01815 0.1225 -0.022675 0.25405 0.004525 0.39015 0.058975 0.317575 0.2586 0.576175 0.56255 0.7395 0.59885 0.31755 1.4336 0.45365 2.0778 0.13155 0.231375 0.244975 0.6533 0.4809 1.419975 0.4809h0.045375c0.195075 0 2.6721 -0.131575 3.39345 -0.3085 0.3221 -0.077125 0.5444 -0.213225 0.689575 -0.335725 0.462725 -0.145175 1.742075 -0.580675 2.948825 -1.361 0.8529 -0.553475 1.147775 -0.671425 1.782925 -0.825675 0.616975 -0.1497 1.0026 -0.71225 0.925475 -1.333775Z" stroke-width="0.25"></path>
</svg>